<?xml version="1.0" encoding="UTF-8" standalone="no"?><!DOCTYPE svg PUBLIC "-//W3C//DTD SVG 1.1//EN" "http://www.w3.org/Graphics/SVG/1.1/DTD/svg11.dtd"><svg width="100%" height="100%" viewBox="0 0 1084 323" version="1.1" xmlns="http://www.w3.org/2000/svg" xmlns:xlink="http://www.w3.org/1999/xlink" xml:space="preserve" xmlns:serif="http://www.serif.com/" style="fill-rule:evenodd;clip-rule:evenodd;stroke-linecap:round;stroke-linejoin:round;stroke-miterlimit:1.5;"><g><path d="M8,225.266l1067.5,0" style="fill:none;stroke:#000;stroke-width:12px;"/><g><path d="M192.833,1.982l-8.168,0c-1.359,0.73 -2.788,1.32 -4.265,1.761c-7.001,2.164 -14.767,2.037 -22.299,2.164c-7.531,0.127 -15.466,0.658 -21.747,3.862c-6.64,3.394 -10.862,9.526 -18.416,11.499c-4.582,1.209 -9.674,0.658 -14.554,0.658l-43.621,56.669l-3.798,-1.612l5.41,-13.133c1.485,-3.035 2.679,-6.203 3.564,-9.463c-3.456,0.919 -6.995,1.488 -10.565,1.697c-9.124,0.552 -18.268,-0.636 -27.433,-0.721c-9.166,-0.085 -18.841,1.082 -25.821,5.622l-0,137.993l66.238,-0l0,-41.882l12.836,-16.782l38.529,58.664l74.11,-0l-65.644,-108.862l65.644,-88.134Z" style="fill-rule:nonzero;"/><path d="M351.428,3.17c-0.421,0.213 -0.853,0.404 -1.294,0.573c-5.368,2.164 -11.351,2.037 -17.143,2.164c-5.792,0.127 -11.881,0.658 -16.697,3.862c-5.114,3.394 -8.36,9.526 -14.152,11.499c-5.792,1.973 -12.56,-0.764 -18.055,1.888c-4.159,1.995 -6.408,6.556 -7.766,10.948c-1.357,4.392 -2.185,9.102 -4.773,12.921c-3.925,5.834 -11.266,8.486 -18.268,9.059c-4.159,0.223 -8.329,0.138 -12.475,-0.254l-0.021,-0l-43.664,143.148l68.572,-0l10.078,-42.179l57.051,0l9.93,42.179l68.572,-0l-59.895,-195.808Zm-60.637,105.043l8.317,-47.567c1.261,-3.556 2.191,-7.221 2.779,-10.948c0.659,-3.753 0.95,-7.562 0.87,-11.372l-0.148,-3.649l4.392,-0l-0.149,3.501c0.03,3.84 0.37,7.671 1.019,11.456c0.578,3.736 1.458,7.418 2.63,11.012l8.317,47.567l-28.027,0Z" style="fill-rule:nonzero;"/><path d="M474.729,144.982l-0,-4.371l3.649,0c3.948,0.165 7.792,-1.283 10.651,-4.01c2.778,-2.806 4.262,-6.642 4.095,-10.587l-0,-100.46c-2.151,2.466 -3.711,5.39 -4.562,8.55c-1.358,4.413 -2.185,9.102 -4.774,12.921c-3.925,5.834 -11.244,8.486 -18.267,9.059c-7.023,0.573 -14.024,-0.636 -21.068,-0.721c-6.295,-0.399 -12.566,1.086 -18.013,4.264l0,139.351l141.239,-0l-0,-53.996l-92.95,-0Z" style="fill-rule:nonzero;"/><path d="M648.442,34.104c-1.357,4.413 -2.185,9.102 -4.752,12.921c-3.946,5.834 -11.266,8.486 -18.268,9.059c-7.001,0.573 -14.045,-0.636 -21.068,-0.721c-6.874,-0.106 -14.109,1.018 -19.434,5.283l0,138.332l66.387,-0l-0,-171.26c-1.232,1.993 -2.195,4.14 -2.865,6.386l0,-0Z" style="fill-rule:nonzero;"/><path d="M856.35,106.474c-7.789,-6.724 -17.717,-10.455 -28.006,-10.524l-0,-4.37c12.348,-1.464 20.905,-5.453 25.672,-11.967c5.834,-5.346 8.755,-14.879 8.762,-28.599l0,-0.722c-0.106,-16.634 -4.971,-28.84 -14.597,-36.62c-6.45,-5.219 -17.037,-8.684 -31.761,-10.396c-0.361,0.17 -0.721,0.318 -1.082,0.467c-5.389,2.164 -11.351,2.037 -17.143,2.164c-5.792,0.127 -11.881,0.658 -16.719,3.862c-5.092,3.394 -8.359,9.526 -14.151,11.499c-5.792,1.973 -12.539,-0.764 -18.034,1.888c-4.159,1.995 -6.429,6.556 -7.787,10.948c-1.358,4.392 -2.185,9.102 -4.752,12.921c-3.946,5.834 -11.266,8.486 -18.268,9.059c-7.001,0.573 -14.045,-0.636 -21.068,-0.721c-7.022,-0.085 -14.448,1.082 -19.816,5.58l0,138.035l118.495,-0c29.066,-0 48.324,-4.187 57.772,-12.56c9.449,-8.374 14.166,-23.105 14.152,-44.194c-0,-17.122 -3.89,-29.039 -11.669,-35.75l-0,-0Zm-112.512,-57.2l41.882,-0c4.094,-0 6.768,0.827 8.041,2.482c1.484,2.561 2.143,5.517 1.888,8.466c0.192,3.195 -0.459,6.385 -1.888,9.25c-1.273,2.1 -3.946,3.14 -8.041,3.14l-41.882,0l0,-23.338Zm55.757,98.487c-1.273,2.228 -4.434,3.345 -9.483,3.352l-46.274,0l0,-33.119l46.274,0c5.049,0 8.21,1.386 9.483,4.159c1.49,4.232 2.131,8.716 1.889,13.196c-0,6.047 -0.637,10.163 -1.889,12.412l0,0Z" style="fill-rule:nonzero;"/><path d="M1050.02,131.276l-24.654,4.37l-1.464,-3.352c17.313,-1.952 30.205,-7.496 38.678,-16.634c10.799,-11.584 16.195,-27.1 16.188,-46.549c-0,-19.752 -5.127,-35.877 -15.382,-48.374c-5.934,-6.983 -13.769,-12.091 -22.553,-14.703c-5.992,-0.006 -11.917,1.267 -17.377,3.735c-6.513,3.394 -10.672,9.526 -18.076,11.499c-7.362,1.994 -16.04,-0.764 -23.063,1.888c-4.731,2.05 -8.349,6.04 -9.929,10.948c-1.655,4.201 -2.673,8.678 -5.644,12.39l28.706,0c5.076,0.011 9.734,2.817 12.115,7.299c2.987,4.767 4.554,10.287 4.519,15.912c0.244,5.758 -1.338,11.446 -4.519,16.252c-2.676,4.063 -7.251,6.467 -12.115,6.365l-38.232,0l0,-39.229c-4.569,1.727 -9.379,2.736 -14.257,2.991c-8.954,0.552 -17.928,-0.636 -26.903,-0.721c-8.975,-0.085 -18.501,1.082 -25.375,5.622l0,137.993l66.832,-0l0,-65.962l18.098,-0l32.398,65.962l70.905,-0l-28.896,-67.702Z" style="fill-rule:nonzero;"/></g><g><path d="M1.12,319.406c-0,0.904 0.804,1.607 1.708,1.607l11.052,0c1.105,0 1.708,-0.703 1.708,-1.607l-0,-30.242l25.017,29.94c1.105,1.507 1.607,1.909 3.818,1.909l13.161,0c1.507,0 2.11,-0.803 0.804,-2.411l-29.94,-34.361l27.428,-29.136c1.306,-1.407 1.005,-2.411 -0.804,-2.411l-11.453,-0c-1.809,-0 -2.512,0.201 -3.416,1.306l-24.615,26.222l-0,-25.921c-0,-0.904 -0.603,-1.607 -1.708,-1.607l-11.052,-0c-0.904,-0 -1.708,0.703 -1.708,1.607l-0,65.105Z" style="fill-rule:nonzero;"/><path d="M89.935,319.406c0,0.904 0.804,1.607 1.708,1.607l11.052,0c1.105,0 1.708,-0.703 1.708,-1.607l0,-23.209l7.535,0l16.678,22.606c1.206,1.708 1.708,2.21 3.517,2.21l11.554,0c2.009,0 3.516,-0.803 2.009,-2.813l-19.089,-24.916c9.444,-2.613 15.372,-9.043 15.372,-18.788c-0,-13.463 -10.65,-21.802 -26.424,-21.802l-23.912,-0c-0.904,-0 -1.708,0.703 -1.708,1.607l0,65.105Zm25.52,-54.656c6.731,0 11.252,3.416 11.252,9.746c0,6.028 -4.521,9.645 -11.353,9.645l-10.951,-0l0,-19.391l11.052,0Z" style="fill-rule:nonzero;"/><path d="M177.847,319.406c-0,0.904 0.803,1.607 1.708,1.607l46.819,0c1.004,0 1.607,-0.703 1.607,-1.708l0,-8.741c0,-1.004 -0.603,-1.607 -1.607,-1.607l-34.06,-0l0,-17.783l24.013,-0c1.004,-0 1.607,-0.704 1.607,-1.708l0,-8.641c0,-1.105 -0.603,-1.708 -1.607,-1.708l-24.013,0l0,-14.367l34.06,0c1.004,0 1.607,-0.703 1.607,-1.607l0,-8.741c0,-1.105 -0.603,-1.708 -1.607,-1.708l-46.819,-0c-0.905,-0 -1.708,0.703 -1.708,1.607l-0,65.105Z" style="fill-rule:nonzero;"/><path d="M270.078,318.702l5.727,-15.673l26.524,0l5.727,15.774c0.603,1.708 1.607,2.21 3.416,2.21l10.047,0c2.009,0 2.913,-0.803 2.11,-2.813l-25.218,-63.899c-0.503,-1.105 -1.307,-1.607 -2.512,-1.607l-12.961,-0c-1.205,-0 -2.009,0.703 -2.411,1.607l-25.218,63.899c-0.804,2.11 -0,2.813 2.11,2.813l9.243,0c1.809,0 2.914,-0.803 3.416,-2.311Zm9.846,-27.126l9.143,-25.017l9.042,25.017l-18.185,-0Z" style="fill-rule:nonzero;"/><path d="M362.209,319.406c0,0.904 0.703,1.607 1.708,1.607l11.052,0c1.004,0 1.708,-0.703 1.708,-1.607l-0,-54.656l20.897,0c1.005,0 1.708,-0.703 1.708,-1.607l0,-8.741c0,-1.105 -0.703,-1.708 -1.708,-1.708l-56.263,-0c-1.004,-0 -1.607,0.603 -1.607,1.708l-0,8.741c-0,0.904 0.603,1.607 1.607,1.607l20.898,0l0,54.656Z" style="fill-rule:nonzero;"/><path d="M430.529,319.406c-0,0.904 0.803,1.607 1.708,1.607l11.051,0c1.105,0 1.708,-0.703 1.708,-1.607l0,-65.105c0,-0.904 -0.603,-1.607 -1.708,-1.607l-11.051,-0c-0.905,-0 -1.708,0.703 -1.708,1.607l-0,65.105Z" style="fill-rule:nonzero;"/><path d="M518.54,319.406l23.51,-63.899c0.704,-2.11 -0.1,-2.813 -2.11,-2.813l-9.645,-0c-1.708,-0 -2.813,0.803 -3.315,2.311l-17.281,51.942l-17.18,-52.043c-0.603,-1.708 -1.608,-2.21 -3.416,-2.21l-10.449,-0c-2.01,-0 -2.813,0.803 -2.11,2.813l23.51,63.899c0.402,1.105 1.205,1.607 2.411,1.607l13.664,0c1.306,0 2.11,-0.703 2.411,-1.607Z" style="fill-rule:nonzero;"/><path d="M639.104,309.56c-8.138,-0 -14.467,-2.613 -22.003,-6.33c-1.205,-0.703 -1.909,-0.402 -2.511,0.804l-4.019,8.54c-0.704,1.306 -0.503,2.11 1.004,2.913c7.335,3.919 15.674,6.531 27.228,6.531c15.07,-0 25.218,-7.937 25.218,-20.797c-0,-11.956 -7.636,-17.08 -21.4,-21.3c-12.559,-3.818 -15.975,-5.325 -15.975,-9.645c-0,-3.316 2.411,-6.129 9.645,-6.129c6.932,0 14.367,3.416 19.29,6.229c1.809,0.905 2.412,0.402 3.115,-1.004l3.918,-8.54c0.402,-0.904 0.402,-1.708 -0.904,-2.512c-6.631,-3.717 -16.075,-6.631 -24.816,-6.631c-17.582,-0 -25.419,9.243 -25.419,19.994c-0,10.047 5.526,16.376 21.601,20.998c12.961,3.818 15.774,5.827 15.774,10.248c-0,3.918 -3.517,6.631 -9.746,6.631Z" style="fill-rule:nonzero;"/><path d="M712.95,319.406c-0,0.904 0.703,1.607 1.708,1.607l11.051,0c1.005,0 1.708,-0.703 1.708,-1.607l0,-54.656l20.898,0c1.005,0 1.708,-0.703 1.708,-1.607l0,-8.741c0,-1.105 -0.703,-1.708 -1.708,-1.708l-56.263,-0c-1.005,-0 -1.608,0.603 -1.608,1.708l0,8.741c0,0.904 0.603,1.607 1.608,1.607l20.898,0l-0,54.656Z" style="fill-rule:nonzero;"/><path d="M779.963,294.288c0,17.08 11.353,27.73 28.734,27.73c17.382,-0 28.634,-10.65 28.634,-27.73l0,-39.987c0,-0.904 -0.602,-1.607 -1.708,-1.607l-11.051,-0c-1.005,-0 -1.708,0.703 -1.708,1.607l-0,40.188c-0,9.846 -5.627,15.071 -14.167,15.071c-8.539,-0 -14.266,-5.225 -14.266,-15.071l-0,-40.188c-0,-0.904 -0.603,-1.607 -1.708,-1.607l-11.052,-0c-1.005,-0 -1.708,0.703 -1.708,1.607l0,39.987Z" style="fill-rule:nonzero;"/><path d="M873.199,319.406c0,0.904 0.804,1.607 1.708,1.607l21.903,0c22.003,0 36.872,-13.362 36.872,-34.16c0,-20.998 -14.869,-34.159 -36.973,-34.159l-21.802,-0c-0.904,-0 -1.708,0.703 -1.708,1.607l0,65.105Zm23.41,-54.656c13.061,0 21.802,8.841 21.802,22.103c-0,13.263 -8.741,22.104 -21.903,22.104l-8.841,-0l-0,-44.207l8.942,0Z" style="fill-rule:nonzero;"/><path d="M966.938,319.406c-0,0.904 0.803,1.607 1.708,1.607l11.051,0c1.106,0 1.708,-0.703 1.708,-1.607l0,-65.105c0,-0.904 -0.602,-1.607 -1.708,-1.607l-11.051,-0c-0.905,-0 -1.708,0.703 -1.708,1.607l-0,65.105Z" style="fill-rule:nonzero;"/><path d="M1049.02,322.018c20.295,-0 33.858,-13.563 33.858,-35.165c0,-21.601 -13.563,-35.164 -33.858,-35.164c-20.396,-0 -33.959,13.563 -33.959,35.164c-0,21.602 13.563,35.165 33.959,35.165Zm-0,-12.458c-11.253,-0 -18.688,-9.043 -18.688,-22.707c0,-13.663 7.435,-22.706 18.688,-22.706c11.252,0 18.687,9.043 18.687,22.706c0,13.664 -7.435,22.707 -18.687,22.707Z" style="fill-rule:nonzero;"/></g></g></svg>